<?xml version="1.0" encoding="UTF-8"?>
<svg version="1.1" xmlns="http://www.w3.org/2000/svg" width="160" height="160">
<path d="M0 0 C4.33903353 2.56271277 8.04136597 5.98530927 11.6875 9.4375 C13.234375 8.261875 13.234375 8.261875 14.8125 7.0625 C20.22158007 3.22835288 25.0148955 1.84173174 31.6875 2.4375 C37.5452636 4.5462949 40.54267251 8.02082744 43.80078125 13.2109375 C48.61180433 25.29148004 42.58891108 40.68362865 37.85546875 51.87109375 C33.40460669 61.92117591 28.15893696 73.17870825 19.6875 80.4375 C16.9375 80.1875 16.9375 80.1875 14.6875 79.4375 C13.91015625 77.85546875 13.91015625 77.85546875 13.6875 75.4375 C15.08159248 73.06784388 16.501912 70.95272112 18.125 68.75 C27.32017073 55.61450549 37.8123986 36.97350943 36.6875 20.4375 C35.89331713 17.28166807 34.87746198 14.86591056 32.6875 12.4375 C29.24006208 11.13658003 27.19610001 10.86393326 23.71484375 12.1875 C20.42174515 13.91857442 18.8856948 14.84291561 17.6875 18.4375 C18.40749607 20.88654191 18.40749607 20.88654191 19.5625 23.4375 C23.30431863 32.22946546 24.38547052 40.88143341 20.9375 50.0625 C19.46472677 53.58079161 17.97331069 55.45868464 14.6875 57.4375 C9.68461816 58.24441643 9.68461816 58.24441643 6.6875 57.4375 C2.18904765 54.00447058 0.16720485 49.82067964 -1.3125 44.4375 C-2.3442922 36.07455267 -1.11059647 29.56911566 2.49609375 21.99609375 C4.2571679 18.21411483 5.02871669 16.46115008 3.6875 12.4375 C1.88817421 11.37033296 1.88817421 11.37033296 -0.3125 10.4375 C-1.09625 9.921875 -1.88 9.40625 -2.6875 8.875 C-5.75156875 7.19705759 -7.81440623 6.57742375 -11.3125 6.4375 C-15.86273117 7.90282868 -18.9276977 9.19785147 -21.3125 13.4375 C-24.34029201 22.52087603 -21.15031604 30.13528571 -17.3125 38.4375 C-11.02672607 51.00904786 -2.04976462 62.83078566 7.578125 73.0546875 C8.6875 74.4375 8.6875 74.4375 8.6875 76.4375 C9.3475 76.4375 10.0075 76.4375 10.6875 76.4375 C12.39634005 78.06089805 14.06196717 79.73069053 15.6875 81.4375 C16.6775 82.4275 16.6775 82.4275 17.6875 83.4375 C17.9375 85.9375 17.9375 85.9375 17.6875 88.4375 C17.0275 89.0975 16.3675 89.7575 15.6875 90.4375 C6.42242877 89.43125251 -1.21993661 77.315843 -6.68310547 70.52832031 C-13.97316781 61.17379621 -20.64620036 51.34406441 -26 40.75 C-26.31485352 40.12754395 -26.62970703 39.50508789 -26.95410156 38.86376953 C-31.16106987 30.09807181 -32.92020327 21.10386651 -30.0625 11.6875 C-27.95396186 6.07449338 -24.9915567 2.03460429 -19.5625 -0.83203125 C-13.38697215 -2.83693352 -5.93595743 -2.70989361 0 0 Z M10.6875 24.4375 C6.60263094 31.07541222 5.76760552 36.68257557 6.6875 44.4375 C7.63206629 47.20856377 7.63206629 47.20856377 8.6875 49.4375 C10.63749129 49.24278889 10.63749129 49.24278889 12.6875 48.4375 C15.84770337 43.647297 15.17141661 37.93591482 14.6875 32.4375 C13.927651 29.55622286 12.94226526 27.15615805 11.6875 24.4375 C11.3575 24.4375 11.0275 24.4375 10.6875 24.4375 Z " fill="#17CC8D" transform="translate(73.3125,46.5625)"/>
<path d="M0 0 C4.51321013 2.94339791 7.86094021 6.81766926 9.875 11.875 C12.46891147 33.36350868 1.71337229 56.17972175 -11.125 72.875 C-13.1875 75.21484375 -13.1875 75.21484375 -15.125 76.875 C-17.875 76.625 -17.875 76.625 -20.125 75.875 C-20.90234375 74.29296875 -20.90234375 74.29296875 -21.125 71.875 C-19.73090752 69.50534388 -18.310588 67.39022112 -16.6875 65.1875 C-7.49232927 52.05200549 2.9998986 33.41100943 1.875 16.875 C1.08209651 13.72425194 0.07978336 11.2864818 -2.125 8.875 C-5.74844366 7.71032168 -7.83313397 7.33672249 -11.375 8.8125 C-11.9525 9.163125 -12.53 9.51375 -13.125 9.875 C-14.115 9.875 -15.105 9.875 -16.125 9.875 C-19.125 5.65277778 -19.125 5.65277778 -19.125 2.875 C-12.50375655 -0.48817128 -7.36436561 -2.65117162 0 0 Z " fill="#18CE8E" transform="translate(108.125,50.125)"/>
<path d="M0 0 C4.3625175 2.27077045 6.85263976 4.94705774 8.99609375 9.31640625 C10.22283038 13.9526247 10.24575637 17.43524408 8.93359375 22.06640625 C5.76079182 27.38852561 2.50491349 30.14256098 -3.37890625 31.81640625 C-8.22378519 32.67282424 -11.78839418 31.79232928 -16.00390625 29.31640625 C-19.58089987 26.36149848 -21.84740338 23.83728109 -23.00390625 19.31640625 C-23.4507877 13.68570004 -23.2241893 10.14683083 -20.00390625 5.31640625 C-14.41425811 -0.33433094 -7.73374071 -2.63821564 0 0 Z M-15.00390625 12.31640625 C-15.72260398 16.14946079 -15.32922049 17.75336237 -13.37890625 21.12890625 C-10.47192845 23.80638581 -8.93950016 24.31640625 -5.00390625 24.31640625 C-1.47484558 22.71228777 -0.17617717 21.57481263 1.99609375 18.31640625 C2.61030084 14.2801882 2.33964498 12.79529584 -0.06640625 9.44140625 C-2.88916687 7.07531718 -2.88916687 7.07531718 -6.50390625 6.69140625 C-10.93367045 7.48243557 -12.39600797 8.6811541 -15.00390625 12.31640625 Z " fill="#17CC8D" transform="translate(92.00390625,18.68359375)"/>
<path d="M0 0 C2.61235473 0.9578634 3.84995562 1.79368898 5.5 4.0625 C6.07468766 7.43879002 5.63332538 8.1100333 4.125 11.0625 C0.82653389 17.72629302 1.11184913 24.66943423 3 31.75 C3.33 32.4925 3.66 33.235 4 34 C-0.77623997 32.87617883 -3.12630503 30.14918549 -5.8203125 26.26171875 C-7.85240844 22.36574674 -7.9083725 19.25675287 -7 15 C-5.19016609 9.68319855 -3.12008572 4.68012858 0 0 Z " fill="#12996B" transform="translate(79,63)"/>
<path d="M0 0 C2.52588702 2.36292656 3.88820837 3.66462511 5 7 C3.68 7.99 2.36 8.98 1 10 C-0.32 8.35 -1.64 6.7 -3 5 C-1.125 1.125 -1.125 1.125 0 0 Z " fill="#129D6C" transform="translate(88,54)"/>
</svg>
